<?xml version="1.0" encoding="UTF-8"?>
<!DOCTYPE svg PUBLIC "-//W3C//DTD SVG 1.1//EN" "http://www.w3.org/Graphics/SVG/1.1/DTD/svg11.dtd">
<svg xmlns="http://www.w3.org/2000/svg" version="1.1" width="126px" height="150px" style="shape-rendering:geometricPrecision; text-rendering:geometricPrecision; image-rendering:optimizeQuality; fill-rule:evenodd; clip-rule:evenodd" xmlns:xlink="http://www.w3.org/1999/xlink">
<g><path style="opacity:1" fill="#ffad0e" d="M 73.5,15.5 C 72.1667,15.5 70.8333,15.5 69.5,15.5C 64.1667,15.5 58.8333,15.5 53.5,15.5C 53.8107,26.976 53.8107,38.476 53.5,50C 56.9019,60.645 57.2352,71.645 54.5,83C 55.114,85.8541 55.7807,88.6875 56.5,91.5C 56.5779,95.6449 56.2446,99.6449 55.5,103.5C 52.8333,103.5 50.1667,103.5 47.5,103.5C 47.703,101.362 48.703,99.6951 50.5,98.5C 49.8333,97.5 49.1667,96.5 48.5,95.5C 50.4297,90.9281 51.0964,86.5948 50.5,82.5C 49.9747,81.8076 49.3081,81.3076 48.5,81C 49.6789,73.2683 48.6789,65.7683 45.5,58.5C 46.7394,56.6885 47.4061,54.6885 47.5,52.5C 46.6329,49.936 46.6329,47.2693 47.5,44.5C 46.8998,41.0529 45.5664,37.8862 43.5,35C 43.7093,29.4962 44.0427,23.6629 44.5,17.5C 46.8766,16.1127 49.5432,15.2794 52.5,15C 59.6791,14.1787 66.6791,14.3454 73.5,15.5 Z"/></g>
<g><path style="opacity:1" fill="#fea100" d="M 69.5,15.5 C 68.1685,23.4811 68.1685,31.4811 69.5,39.5C 68.8333,43.5 68.1667,47.5 67.5,51.5C 68.3987,53.7078 68.0654,55.8745 66.5,58C 67.4194,66.4251 67.4194,74.7585 66.5,83C 66.4391,85.2605 67.1057,87.2605 68.5,89C 66.252,92.3386 66.252,95.3386 68.5,98C 67.3313,100.007 66.6646,102.173 66.5,104.5C 65.8333,104.5 65.1667,104.5 64.5,104.5C 61.7131,103.523 58.7131,103.19 55.5,103.5C 56.2446,99.6449 56.5779,95.6449 56.5,91.5C 55.7807,88.6875 55.114,85.8541 54.5,83C 57.2352,71.645 56.9019,60.645 53.5,50C 53.8107,38.476 53.8107,26.976 53.5,15.5C 58.8333,15.5 64.1667,15.5 69.5,15.5 Z"/></g>
<g><path style="opacity:1" fill="#fe9901" d="M 69.5,15.5 C 70.8333,15.5 72.1667,15.5 73.5,15.5C 75.099,15.2322 76.4324,15.5655 77.5,16.5C 75.8793,16.7869 74.8793,17.7869 74.5,19.5C 75.1644,26.1669 75.4977,32.8336 75.5,39.5C 74.7066,43.7548 73.7066,48.0881 72.5,52.5C 72.2874,58.6342 72.6207,64.8008 73.5,71C 72.6422,72.57 71.9755,74.2367 71.5,76C 72.2971,83.7826 72.2971,91.6159 71.5,99.5C 73.4562,104.761 73.7896,110.094 72.5,115.5C 74.0772,117.558 75.0772,119.892 75.5,122.5C 74.9315,125.412 74.9315,128.412 75.5,131.5C 71.7643,132.989 67.7643,133.656 63.5,133.5C 62.288,127.955 62.288,122.455 63.5,117C 62.6195,116.292 61.9528,115.458 61.5,114.5C 68.6967,114.102 70.3634,110.769 66.5,104.5C 66.6646,102.173 67.3313,100.007 68.5,98C 66.252,95.3386 66.252,92.3386 68.5,89C 67.1057,87.2605 66.4391,85.2605 66.5,83C 67.4194,74.7585 67.4194,66.4251 66.5,58C 68.0654,55.8745 68.3987,53.7078 67.5,51.5C 68.1667,47.5 68.8333,43.5 69.5,39.5C 68.1685,31.4811 68.1685,23.4811 69.5,15.5 Z"/></g>
<g><path style="opacity:0.999" fill="#ffb203" d="M 44.5,17.5 C 44.0427,23.6629 43.7093,29.4962 43.5,35C 45.5664,37.8862 46.8998,41.0529 47.5,44.5C 46.6329,47.2693 46.6329,49.936 47.5,52.5C 47.4061,54.6885 46.7394,56.6885 45.5,58.5C 48.6789,65.7683 49.6789,73.2683 48.5,81C 49.3081,81.3076 49.9747,81.8076 50.5,82.5C 51.0964,86.5948 50.4297,90.9281 48.5,95.5C 49.1667,96.5 49.8333,97.5 50.5,98.5C 48.703,99.6951 47.703,101.362 47.5,103.5C 42.5,103.5 37.5,103.5 32.5,103.5C 33.5361,101.609 33.5361,99.7755 32.5,98C 33.0563,95.7635 34.0563,93.7635 35.5,92C 34.6346,88.6237 34.968,85.2904 36.5,82C 34.9867,71.0881 32.9867,60.2548 30.5,49.5C 32.1142,46.8429 31.4475,45.0095 28.5,44C 29.5885,40.7573 29.5885,37.4239 28.5,34C 27.035,32.2258 25.7017,30.3925 24.5,28.5C 30.2377,23.2947 36.9044,19.628 44.5,17.5 Z"/></g>
<g><path style="opacity:1" fill="#ff8e02" d="M 77.5,16.5 C 81.2971,16.8723 84.6305,18.2057 87.5,20.5C 86.3611,24.3007 85.5277,28.3007 85,32.5C 84.7265,34.3289 83.8932,35.8289 82.5,37C 83.8849,43.2024 83.2183,49.2024 80.5,55C 82.4253,57.868 82.4253,60.5346 80.5,63C 80.6214,66.6538 80.9548,70.3205 81.5,74C 79.3531,76.5043 79.3531,78.8376 81.5,81C 81.3813,89.3178 81.048,97.6512 80.5,106C 81.2077,113.87 82.8744,121.37 85.5,128.5C 82.4954,130.277 79.1621,131.277 75.5,131.5C 74.9315,128.412 74.9315,125.412 75.5,122.5C 75.0772,119.892 74.0772,117.558 72.5,115.5C 73.7896,110.094 73.4562,104.761 71.5,99.5C 72.2971,91.6159 72.2971,83.7826 71.5,76C 71.9755,74.2367 72.6422,72.57 73.5,71C 72.6207,64.8008 72.2874,58.6342 72.5,52.5C 73.7066,48.0881 74.7066,43.7548 75.5,39.5C 75.4977,32.8336 75.1644,26.1669 74.5,19.5C 74.8793,17.7869 75.8793,16.7869 77.5,16.5 Z"/></g>
<g><path style="opacity:0.999" fill="#ff8202" d="M 87.5,20.5 C 91.6553,21.7417 95.322,23.7417 98.5,26.5C 96.8762,26.3601 95.7096,27.0267 95,28.5C 92.7699,38.0254 90.9366,47.6921 89.5,57.5C 89.8333,59.5 90.1667,61.5 90.5,63.5C 89.8082,68.6522 89.1416,73.8189 88.5,79C 88.9031,80.4728 89.5697,81.8061 90.5,83C 88.5776,84.46 87.9109,86.1267 88.5,88C 89.1667,90.3333 89.8333,92.6667 90.5,95C 89.1955,95.804 88.5288,96.9707 88.5,98.5C 90.4868,107.086 91.8202,115.753 92.5,124.5C 93.5,124.5 94.5,124.5 95.5,124.5C 95.1583,125.338 94.4916,125.672 93.5,125.5C 90.9933,126.892 88.3267,127.892 85.5,128.5C 82.8744,121.37 81.2077,113.87 80.5,106C 81.048,97.6512 81.3813,89.3178 81.5,81C 79.3531,78.8376 79.3531,76.5043 81.5,74C 80.9548,70.3205 80.6214,66.6538 80.5,63C 82.4253,60.5346 82.4253,57.868 80.5,55C 83.2183,49.2024 83.8849,43.2024 82.5,37C 83.8932,35.8289 84.7265,34.3289 85,32.5C 85.5277,28.3007 86.3611,24.3007 87.5,20.5 Z"/></g>
<g><path style="opacity:0.999" fill="#ff7501" d="M 98.5,26.5 C 100.5,27.8333 102.167,29.5 103.5,31.5C 102.883,31.6107 102.383,31.944 102,32.5C 101.745,39.3274 100.245,45.8274 97.5,52C 97.9574,52.414 98.2907,52.914 98.5,53.5C 97.4636,56.8596 96.7969,60.0262 96.5,63C 97.3567,63.6891 98.0233,64.5224 98.5,65.5C 97.2998,71.5228 96.2998,77.5228 95.5,83.5C 96.1667,85.1667 96.8333,86.8333 97.5,88.5C 97.3645,96.4946 97.3645,104.661 97.5,113C 99.3008,113.317 99.6341,113.984 98.5,115C 99.7811,116.409 100.781,117.909 101.5,119.5C 99.9095,121.633 97.9095,123.299 95.5,124.5C 94.5,124.5 93.5,124.5 92.5,124.5C 91.8202,115.753 90.4868,107.086 88.5,98.5C 88.5288,96.9707 89.1955,95.804 90.5,95C 89.8333,92.6667 89.1667,90.3333 88.5,88C 87.9109,86.1267 88.5776,84.46 90.5,83C 89.5697,81.8061 88.9031,80.4728 88.5,79C 89.1416,73.8189 89.8082,68.6522 90.5,63.5C 90.1667,61.5 89.8333,59.5 89.5,57.5C 90.9366,47.6921 92.7699,38.0254 95,28.5C 95.7096,27.0267 96.8762,26.3601 98.5,26.5 Z"/></g>
<g><path style="opacity:0.999" fill="#feb602" d="M 24.5,28.5 C 25.7017,30.3925 27.035,32.2258 28.5,34C 29.5885,37.4239 29.5885,40.7573 28.5,44C 31.4475,45.0095 32.1142,46.8429 30.5,49.5C 32.9867,60.2548 34.9867,71.0881 36.5,82C 34.968,85.2904 34.6346,88.6237 35.5,92C 34.0563,93.7635 33.0563,95.7635 32.5,98C 33.5361,99.7755 33.5361,101.609 32.5,103.5C 27.1667,103.5 21.8333,103.5 16.5,103.5C 16.5,95.8333 16.5,88.1667 16.5,80.5C 18.9928,80.6709 20.8261,79.6709 22,77.5C 22.6667,66.5 22.6667,55.5 22,44.5C 21.5,44 21,43.5 20.5,43C 17.3054,42.8195 14.3054,42.3195 11.5,41.5C 14.4579,38.9405 16.9579,35.9405 19,32.5C 20.9917,31.3353 22.825,30.002 24.5,28.5 Z"/></g>
<g><path style="opacity:0.998" fill="#ff6a02" d="M 103.5,31.5 C 104.496,31.4142 105.329,31.7476 106,32.5C 108.08,35.0652 109.913,37.7318 111.5,40.5C 109.753,41.9807 108.586,43.9807 108,46.5C 107.667,50.1667 107.333,53.8333 107,57.5C 106.308,58.0253 105.808,58.6919 105.5,59.5C 105.417,61.7365 105.75,64.0698 106.5,66.5C 105.907,68.3817 105.24,70.2151 104.5,72C 105.543,80.419 105.543,88.7523 104.5,97C 105.795,102.273 107.128,107.439 108.5,112.5C 106.5,115.167 104.167,117.5 101.5,119.5C 100.781,117.909 99.7811,116.409 98.5,115C 99.6341,113.984 99.3008,113.317 97.5,113C 97.3645,104.661 97.3645,96.4946 97.5,88.5C 96.8333,86.8333 96.1667,85.1667 95.5,83.5C 96.2998,77.5228 97.2998,71.5228 98.5,65.5C 98.0233,64.5224 97.3567,63.6891 96.5,63C 96.7969,60.0262 97.4636,56.8596 98.5,53.5C 98.2907,52.914 97.9574,52.414 97.5,52C 100.245,45.8274 101.745,39.3274 102,32.5C 102.383,31.944 102.883,31.6107 103.5,31.5 Z"/></g>
<g><path style="opacity:0.983" fill="#585551" d="M 11.5,41.5 C 14.3054,42.3195 17.3054,42.8195 20.5,43C 21,43.5 21.5,44 22,44.5C 22.6667,55.5 22.6667,66.5 22,77.5C 20.8261,79.6709 18.9928,80.6709 16.5,80.5C 16.1667,80.5 15.8333,80.5 15.5,80.5C 13.5,80.5 11.5,80.5 9.5,80.5C 8.31293,79.4664 7.4796,78.133 7,76.5C 6.50034,69.1742 6.33368,61.8409 6.5,54.5C 6.5,50.1667 6.5,45.8333 6.5,41.5C 8.16667,41.5 9.83333,41.5 11.5,41.5 Z"/></g>
<g><path style="opacity:0.997" fill="#ff5f0e" d="M 111.5,40.5 C 126.688,62.3591 127.188,84.6924 113,107.5C 111.951,109.618 110.451,111.284 108.5,112.5C 107.128,107.439 105.795,102.273 104.5,97C 105.543,88.7523 105.543,80.419 104.5,72C 105.24,70.2151 105.907,68.3817 106.5,66.5C 105.75,64.0698 105.417,61.7365 105.5,59.5C 105.808,58.6919 106.308,58.0253 107,57.5C 107.333,53.8333 107.667,50.1667 108,46.5C 108.586,43.9807 109.753,41.9807 111.5,40.5 Z"/></g>
<g><path style="opacity:0.992" fill="#fbbe30" d="M 6.5,54.5 C 6.33368,61.8409 6.50034,69.1742 7,76.5C 7.4796,78.133 8.31293,79.4664 9.5,80.5C 9.82453,87.6866 9.49119,94.6866 8.5,101.5C 4.99543,92.6487 2.66209,83.482 1.5,74C 2.08486,67.1038 3.75153,60.6038 6.5,54.5 Z"/></g>
<g><path style="opacity:0.963" fill="#93928f" d="M 9.5,80.5 C 11.5,80.5 13.5,80.5 15.5,80.5C 15.5,88.5 15.5,96.5 15.5,104.5C 31.8333,104.5 48.1667,104.5 64.5,104.5C 65.1667,104.5 65.8333,104.5 66.5,104.5C 70.3634,110.769 68.6967,114.102 61.5,114.5C 56.1667,114.5 50.8333,114.5 45.5,114.5C 36.3178,114.173 27.3178,114.507 18.5,115.5C 15.5525,115.777 12.7191,115.444 10,114.5C 8.71011,110.27 8.21011,105.936 8.5,101.5C 9.49119,94.6866 9.82453,87.6866 9.5,80.5 Z"/></g>
<g><path style="opacity:1" fill="#d0a340" d="M 15.5,80.5 C 15.8333,80.5 16.1667,80.5 16.5,80.5C 16.5,88.1667 16.5,95.8333 16.5,103.5C 21.8333,103.5 27.1667,103.5 32.5,103.5C 37.5,103.5 42.5,103.5 47.5,103.5C 50.1667,103.5 52.8333,103.5 55.5,103.5C 58.7131,103.19 61.7131,103.523 64.5,104.5C 48.1667,104.5 31.8333,104.5 15.5,104.5C 15.5,96.5 15.5,88.5 15.5,80.5 Z"/></g>
<g><path style="opacity:0.999" fill="#feb306" d="M 18.5,115.5 C 27.3178,114.507 36.3178,114.173 45.5,114.5C 45.5552,117.098 45.8886,119.764 46.5,122.5C 45.1911,125.083 44.1911,127.75 43.5,130.5C 39.2045,128.626 34.8712,126.959 30.5,125.5C 26.2079,122.543 22.2079,119.21 18.5,115.5 Z"/></g>
<g><path style="opacity:1" fill="#fea700" d="M 45.5,114.5 C 50.8333,114.5 56.1667,114.5 61.5,114.5C 61.9528,115.458 62.6195,116.292 63.5,117C 62.288,122.455 62.288,127.955 63.5,133.5C 56.6901,133.365 50.0235,132.365 43.5,130.5C 44.1911,127.75 45.1911,125.083 46.5,122.5C 45.8886,119.764 45.5552,117.098 45.5,114.5 Z"/></g>
<g><path style="opacity:0.908" fill="#d3d1cd" d="M 30.5,125.5 C 34.8712,126.959 39.2045,128.626 43.5,130.5C 50.0235,132.365 56.6901,133.365 63.5,133.5C 67.7643,133.656 71.7643,132.989 75.5,131.5C 79.1621,131.277 82.4954,130.277 85.5,128.5C 88.3267,127.892 90.9933,126.892 93.5,125.5C 92.1124,132.097 88.7791,137.597 83.5,142C 78.4576,145.357 73.1243,147.857 67.5,149.5C 62.8333,149.5 58.1667,149.5 53.5,149.5C 47.9054,147.034 42.572,144.034 37.5,140.5C 34.8957,135.625 32.5624,130.625 30.5,125.5 Z"/></g>
<g><path style="opacity:1" fill="#171717" d="M 74.5,135.5 C 76.5492,135.706 76.8825,136.539 75.5,138C 71.4664,140.923 67.1331,142.089 62.5,141.5C 66.7643,140.075 70.7643,138.075 74.5,135.5 Z"/></g>
</svg>
