<?xml version="1.0" encoding="UTF-8"?>
<!DOCTYPE svg PUBLIC "-//W3C//DTD SVG 1.1//EN" "http://www.w3.org/Graphics/SVG/1.1/DTD/svg11.dtd">
<svg xmlns="http://www.w3.org/2000/svg" version="1.1" width="370px" height="80px" style="shape-rendering:geometricPrecision; text-rendering:geometricPrecision; image-rendering:optimizeQuality; fill-rule:evenodd; clip-rule:evenodd" xmlns:xlink="http://www.w3.org/1999/xlink">
<g><path style="opacity:0.84" fill="#fefffe" d="M 36.5,4.5 C 38.9355,11.8467 40.4355,19.5133 41,27.5C 41.9283,41.5556 41.595,55.5556 40,69.5C 38.4313,73.4003 35.598,75.9003 31.5,77C 23.5921,78.5824 16.2588,77.2491 9.5,73C 7.04392,70.5925 5.21059,67.7591 4,64.5C 2.219,44.8579 4.88566,25.8579 12,7.5C 12.1066,24.5341 12.7733,41.5341 14,58.5C 15.9397,63.2335 19.4397,66.2335 24.5,67.5C 26.7534,66.7469 28.5867,65.4136 30,63.5C 32.377,43.8517 34.5437,24.185 36.5,4.5 Z"/></g>
<g><path style="opacity:0.83" fill="#fefffe" d="M 47.5,11.5 C 50.8499,11.335 54.1832,11.5017 57.5,12C 60.9018,15.9676 63.4018,20.4676 65,25.5C 68.0034,33.8444 71.0034,42.1777 74,50.5C 74.9555,37.7874 76.2888,25.1207 78,12.5C 82.317,31.5183 83.4837,50.685 81.5,70C 77.4807,72.1605 73.6473,71.9938 70,69.5C 64.1009,56.3721 58.7676,43.0388 54,29.5C 51.3206,44.5794 48.3206,59.5794 45,74.5C 43,55.8333 43,37.1667 45,18.5C 45.3793,15.9699 46.2126,13.6365 47.5,11.5 Z"/></g>
<g><path style="opacity:0.815" fill="#fefffe" d="M 185.5,13.5 C 190.039,12.9569 193.873,14.2902 197,17.5C 204.69,26.8716 207.69,37.5383 206,49.5C 202.984,53.0917 199.151,55.2584 194.5,56C 198.615,58.4476 202.448,61.2809 206,64.5C 207.853,74.0259 204.02,77.1926 194.5,74C 189.106,73.1942 183.94,71.6942 179,69.5C 176.034,73.3012 174.034,72.6345 173,67.5C 171.407,55.8538 171.407,44.1872 173,32.5C 173.479,29.3763 174.646,26.5429 176.5,24C 176.167,23.6667 175.833,23.3333 175.5,23C 178.4,19.2636 181.734,16.0969 185.5,13.5 Z M 184.5,19.5 C 186.981,19.3234 188.814,20.3234 190,22.5C 192.751,28.4181 194.918,34.5848 196.5,41C 196.241,42.2613 195.574,43.2613 194.5,44C 190.492,45.1126 186.659,46.6126 183,48.5C 182.667,42.8333 182.333,37.1667 182,31.5C 181.803,28.3081 180.97,25.3081 179.5,22.5C 181.36,21.6751 183.026,20.6751 184.5,19.5 Z M 180.5,63.5 C 195.252,67.0427 194.919,68.2094 179.5,67C 180.337,65.9887 180.67,64.8221 180.5,63.5 Z"/></g>
<g><path style="opacity:0.778" fill="#fefffe" d="M 273.5,13.5 C 280.283,17.4538 285.116,23.1204 288,30.5C 291.831,23.9143 297.165,18.9143 304,15.5C 303.654,25.8725 300.154,35.0392 293.5,43C 297.869,51.94 299.869,61.1067 299.5,70.5C 293.023,66.8543 288.523,61.521 286,54.5C 282.26,59.7912 277.427,63.7912 271.5,66.5C 271.389,57.345 274.389,49.1783 280.5,42C 275.815,33.1041 273.481,23.6041 273.5,13.5 Z"/></g>
<g><path style="opacity:1" fill="#ff6b05" d="M 330.5,13.5 C 354.362,13.1922 365.195,24.8589 363,48.5C 357.345,63.5761 346.511,70.4094 330.5,69C 311.933,62.3633 305.099,49.53 310,30.5C 314.038,21.2821 320.871,15.6155 330.5,13.5 Z"/></g>
<g><path style="opacity:0.784" fill="#fefffe" d="M 239.5,15.5 C 243.846,15.3343 248.179,15.501 252.5,16C 257.588,20.6683 260.755,26.5016 262,33.5C 266.448,48.8852 262.615,61.7186 250.5,72C 241.575,77.2343 232.242,77.9009 222.5,74C 212.057,64.8739 208.224,53.3739 211,39.5C 213.56,34.8842 216.727,30.7176 220.5,27C 226.564,22.6383 232.898,18.805 239.5,15.5 Z M 243.5,22.5 C 246.845,23.6799 249.011,26.0132 250,29.5C 256.406,44.617 252.572,56.4503 238.5,65C 233.243,66.4261 228.743,65.2594 225,61.5C 222.079,56.6587 219.412,51.6587 217,46.5C 216.234,40.0622 217.734,34.2289 221.5,29C 228.951,26.8091 236.285,24.6424 243.5,22.5 Z"/></g>
<g><path style="opacity:0.82" fill="#fefffe" d="M 96.5,18.5 C 96.6905,33.9923 96.8572,49.659 97,65.5C 104.77,68.8808 111.77,67.5475 118,61.5C 119.827,57.7185 120.827,53.7185 121,49.5C 121.584,39.4945 122.25,29.4945 123,19.5C 128.869,33.5939 131.036,48.2605 129.5,63.5C 139.215,62.426 148.715,60.426 158,57.5C 158.624,55.5355 158.124,53.8689 156.5,52.5C 151.533,51.671 146.533,51.171 141.5,51C 138.619,49.7494 136.786,47.5827 136,44.5C 134,37.1667 134,29.8333 136,22.5C 140.654,19.3012 145.821,18.1345 151.5,19C 147.01,20.242 143.677,22.9087 141.5,27C 142.589,31.1889 143.756,35.3555 145,39.5C 145.839,40.6241 147.006,41.2908 148.5,41.5C 158.979,37.9144 165.812,41.2477 169,51.5C 171.999,60.472 169.166,66.3053 160.5,69C 148.22,70.6565 135.887,71.8232 123.5,72.5C 113.517,78.4784 102.851,79.9784 91.5,77C 89.6217,75.4571 88.1217,73.6238 87,71.5C 85.2187,52.9102 88.3853,35.2436 96.5,18.5 Z"/></g>
</svg>
